<?xml version="1.0" encoding="utf-8"?>
<!-- Generator: Adobe Illustrator 27.5.0, SVG Export Plug-In . SVG Version: 6.00 Build 0)  -->
<svg version="1.1" id="Layer_1" xmlns="http://www.w3.org/2000/svg" xmlns:xlink="http://www.w3.org/1999/xlink" x="0px" y="0px"
	 viewBox="0 0 4000 4000" style="enable-background:new 0 0 4000 4000;" xml:space="preserve">
<g>
	<rect x="16.529" y="16.529" style="fill-rule:evenodd;clip-rule:evenodd;fill:#FFFFFF;" width="3966.942" height="3966.942"/>
	<path style="fill-rule:evenodd;clip-rule:evenodd;" d="M2984.959,2925.601v215.803h-52.57v-129.42l-48.263,129.42h-42.427
		l-48.573-129.729v129.729h-52.565v-215.803h62.096l60.563,149.402l59.949-149.402H2984.959z M2575.477,2925.601v129.114
		c0,12.909,3.177,22.851,9.53,29.818c6.354,6.972,15.678,10.453,27.977,10.453c12.294,0,21.726-3.481,28.281-10.453
		c6.559-6.967,9.838-16.909,9.838-29.818v-129.114h52.57v128.805c0,19.266-4.099,35.557-12.299,48.877
		c-8.198,13.321-19.215,23.367-33.046,30.132c-13.835,6.76-29.255,10.144-46.268,10.144c-17.007,0-32.225-3.336-45.649-9.993
		c-13.423-6.658-24.031-16.704-31.818-30.122c-7.787-13.428-11.684-29.772-11.684-49.038v-128.805H2575.477z M2412.858,3143.559
		c-15.782,0-29.922-2.564-42.421-7.689c-12.506-5.121-22.494-12.706-29.977-22.747c-7.483-10.042-11.423-22.134-11.836-36.274
		h55.949c0.82,7.988,3.588,14.089,8.302,18.292c4.712,4.202,10.859,6.301,18.441,6.301c7.792,0,13.939-1.793,18.446-5.378
		c4.512-3.588,6.765-8.56,6.765-14.914c0-5.327-1.795-9.73-5.383-13.217c-3.58-3.486-7.989-6.354-13.213-8.607
		c-5.228-2.254-12.66-4.816-22.292-7.689c-13.934-4.301-25.306-8.602-34.124-12.907c-8.808-4.306-16.394-10.66-22.747-19.061
		c-6.354-8.4-9.529-19.364-9.529-32.896c0-20.081,7.276-35.81,21.828-47.187c14.549-11.375,33.506-17.058,56.871-17.058
		c23.774,0,42.937,5.683,57.489,17.058c14.549,11.377,22.336,27.208,23.362,47.496h-56.871c-0.413-6.967-2.97-12.448-7.689-16.449
		c-4.712-3.992-10.757-5.993-18.137-5.993c-6.352,0-11.474,1.693-15.367,5.074c-3.899,3.383-5.843,8.246-5.843,14.6
		c0,6.972,3.279,12.402,9.835,16.296c6.563,3.893,16.81,8.096,30.745,12.603c13.934,4.714,25.258,9.225,33.969,13.527
		c8.711,4.306,16.24,10.555,22.597,18.75c6.354,8.2,9.531,18.755,9.531,31.668c0,12.294-3.126,23.464-9.38,33.506
		c-6.245,10.042-15.316,18.033-27.203,23.98C2443.083,3140.584,2429.045,3143.559,2412.858,3143.559z M2224.103,3022.128
		c10.041,0,17.524-2.355,22.443-7.069s7.38-11.377,7.38-19.984c0-8.606-2.461-15.269-7.38-19.983
		c-4.919-4.712-12.402-7.069-22.443-7.069h-28.59v54.106H2224.103z M2307.414,2995.075c0,12.506-2.868,23.924-8.607,34.278
		c-5.74,10.345-14.553,18.699-26.439,25.053c-11.888,6.354-26.641,9.53-44.268,9.53h-32.587v77.468h-52.57v-215.803h85.157
		c17.213,0,31.767,2.97,43.653,8.912c11.887,5.946,20.803,14.144,26.744,24.594
		C2304.444,2969.559,2307.414,2981.549,2307.414,2995.075z M2104.824,2925.601v215.803h-52.565v-215.803H2104.824z
		 M2014.447,2925.601v215.803h-52.565v-129.42l-48.268,129.42h-42.422l-48.573-129.729v129.729h-52.57v-215.803h62.101
		l60.559,149.402l59.949-149.402H2014.447z M1656.307,2967.713v43.658h70.398v40.575h-70.398v47.345h79.62v42.113h-132.188v-215.803
		h132.188v42.112H1656.307z M1455.872,3022.743h32.587c9.633,0,16.858-2.357,21.669-7.071c4.822-4.712,7.225-11.37,7.225-19.983
		c0-8.193-2.403-14.65-7.225-19.364c-4.812-4.714-12.036-7.074-21.669-7.074h-32.587V3022.743z M1513.356,3141.404l-44.881-81.465
		h-12.603v81.465h-52.57v-215.803h88.231c17.012,0,31.509,2.97,43.497,8.912c11.99,5.946,20.959,14.093,26.899,24.443
		c5.942,10.351,8.917,21.876,8.917,34.582c0,14.347-4.05,27.157-12.146,38.43c-8.096,11.268-20.035,19.261-35.815,23.98
		l49.805,85.456H1513.356z M1263.74,3095.599c17.213,0,30.998-5.739,41.349-17.213c10.344-11.479,15.522-26.646,15.522-45.494
		c0-19.066-5.178-34.284-15.522-45.655c-10.35-11.377-24.135-17.064-41.349-17.064c-17.42,0-31.307,5.641-41.658,16.909
		c-10.35,11.273-15.522,26.544-15.522,45.81c0,19.054,5.172,34.273,15.522,45.65
		C1232.433,3089.911,1246.32,3095.599,1263.74,3095.599z M1263.74,3143.559c-20.292,0-38.894-4.719-55.798-14.146
		c-16.909-9.421-30.332-22.593-40.271-39.502c-9.937-16.904-14.909-35.917-14.909-57.02c0-21.112,4.972-40.069,14.909-56.876
		c9.939-16.802,23.362-29.921,40.271-39.349c16.904-9.431,35.506-14.139,55.798-14.139c20.288,0,38.884,4.708,55.793,14.139
		c16.909,9.428,30.23,22.547,39.965,39.349c9.737,16.807,14.6,35.764,14.6,56.876c0,21.103-4.914,40.116-14.754,57.02
		c-9.835,16.909-23.16,30.081-39.962,39.502C1302.576,3138.84,1284.027,3143.559,1263.74,3143.559z M2610.298,3188.197h-9.759
		v79.412h12.82v-56.046l45.04,56.046h9.643v-79.412h-12.708v56.496L2610.298,3188.197z M2505.029,3239.361h-33.58l16.792-37.783
		L2505.029,3239.361z M2517.28,3267.609h13.504l-35.623-79.412h-13.841l-35.622,79.412h13.498l7.492-16.679h42.992L2517.28,3267.609
		z M2379.455,3198.288c-8.096-8.016-17.893-12.021-29.387-12.021c-13.01,0-23.22,4.066-30.628,12.195
		c-7.411,8.129-11.117,18.208-11.117,30.235c0,5.445,0.828,10.534,2.492,15.256c1.668,4.727,4.123,9,7.375,12.818
		c3.251,3.825,7.622,6.846,13.104,9.081c5.483,2.225,11.742,3.34,18.773,3.34c12.403,0,22.805-4.61,31.2-13.836v-32.562h-33.92
		v11.347h22.119v16.109c-5.595,4.689-12.061,7.036-19.398,7.036c-9.679,0-16.979-2.764-21.894-8.283
		c-4.914-5.524-7.375-12.291-7.375-20.307c-0.074-8.696,2.535-16,7.83-21.894c5.294-5.904,12.44-8.851,21.44-8.851
		c3.782,0,7.623,0.741,11.518,2.212c3.894,1.476,7.206,3.575,9.924,6.297L2379.455,3198.288z M2170.723,3228.467
		c0-8.921,2.475-16.184,7.431-21.782c4.952-5.593,11.891-8.397,20.817-8.397c6.124,0.081,11.362,1.645,15.714,4.709
		c4.344,3.064,7.446,6.79,9.301,11.18c1.851,4.385,2.779,9.15,2.779,14.289c0,8.322-2.342,15.261-7.033,20.818
		c-4.689,5.56-11.684,8.339-20.985,8.339c-4.691,0-8.869-0.853-12.539-2.554c-3.668-1.699-6.597-3.967-8.788-6.802
		c-2.194-2.84-3.838-5.937-4.934-9.306C2171.384,3235.599,2170.797,3232.098,2170.723,3228.467z M2198.971,3186.721
		c-11.952,0-21.745,3.912-29.382,11.74c-7.641,7.825-11.461,17.79-11.461,29.893c0,5.37,0.853,10.458,2.554,15.261
		c1.701,4.797,4.16,9.131,7.375,12.987c3.215,3.861,7.468,6.94,12.764,9.25c5.294,2.306,11.268,3.458,17.926,3.458
		c6.653,0,12.626-1.121,17.921-3.345c5.296-2.235,9.549-5.276,12.769-9.132c3.21-3.86,5.669-8.227,7.37-13.104
		c1.701-4.883,2.549-10.041,2.549-15.486c0-11.498-3.514-21.271-10.547-29.326
		C2221.769,3190.862,2211.827,3186.795,2198.971,3186.721z M2039.589,3188.197v79.412h54.565v-11.798h-41.86v-67.613H2039.589z
		 M1963.021,3199.314c-5.599-8.926-15.466-13.385-29.612-13.385c-3.78,0-7.408,0.43-10.889,1.302
		c-3.481,0.866-6.732,2.174-9.759,3.913c-3.023,1.737-5.445,4.122-7.258,7.144c-1.813,3.031-2.722,6.509-2.722,10.44
		c0,3.256,0.585,6.142,1.757,8.678c1.172,2.534,2.648,4.597,4.428,6.184c1.775,1.588,4.099,2.947,6.972,4.086
		c2.876,1.134,5.616,2.007,8.227,2.605c2.61,0.61,5.726,1.139,9.357,1.593c6.359,0.83,11.324,2.212,14.922,4.137
		c3.59,1.931,5.388,4.901,5.388,8.907c0,3.101-1.04,5.688-3.121,7.769c-2.079,2.079-4.559,3.499-7.43,4.258
		c-2.873,0.755-6.05,1.129-9.531,1.129c-11.344,0-19.59-4.342-24.734-13.043l-9.526,6.354c6.504,12.026,17.884,18.038,34.142,18.038
		c5.904,0,11.212-0.779,15.94-2.329c4.727-1.545,8.737-4.212,12.026-7.993c3.289-3.78,4.934-8.508,4.934-14.182
		c0-4.231-0.848-7.886-2.554-10.946c-1.696-3.064-4.175-5.486-7.427-7.263c-3.251-1.775-6.545-3.121-9.868-4.028
		c-3.331-0.906-7.34-1.701-12.026-2.38c-6.279-0.909-11.063-2.156-14.352-3.744c-3.289-1.588-4.937-4.124-4.937-7.605
		c0-3.701,1.704-6.635,5.106-8.79c3.402-2.155,7.83-3.233,13.274-3.233c4.16,0.076,7.998,0.891,11.517,2.436
		c3.514,1.552,6.217,3.693,8.109,6.41L1963.021,3199.314z M1802.388,3199.764c4.916,0,8.658,1.458,11.236,4.367
		c2.567,2.914,3.855,6.336,3.855,10.271c0,4.005-1.288,7.374-3.855,10.096c-2.578,2.722-6.359,4.086-11.349,4.086h-24.162v-28.82
		H1802.388z M1832.566,3265.336l-23.712-26.43c7.337-1.064,12.762-3.879,16.281-8.453c3.519-4.577,5.276-10.003,5.276-16.276
		c0-7.113-2.478-13.218-7.431-18.326c-4.952-5.103-11.816-7.655-20.592-7.655c-4.081,0-10.246-0.025-18.493-0.056
		c-8.241-0.043-14.408-0.061-18.489-0.061v79.529h12.707v-27.456h16.787l24.164,27.456h14.866L1832.566,3265.336z M1675.115,3188.31
		v46.398c0,7.413-2.043,13.137-6.129,17.19c-4.081,4.045-9.375,5.876-15.883,5.501c-6.05-0.23-10.927-2.309-14.633-6.245
		c-3.706-3.932-5.557-9.413-5.557-16.446v-46.398h-12.598v46.398c0,10.739,3.124,19.098,9.36,25.071
		c6.241,5.974,14.051,9.076,23.428,9.301c10.063,0.38,18.337-2.436,24.846-8.453c6.502-6.01,9.754-14.651,9.754-25.919v-46.398
		H1675.115z M1478.864,3228.467c0-8.921,2.473-16.184,7.431-21.782c4.952-5.593,11.891-8.397,20.817-8.397
		c6.124,0.081,11.362,1.645,15.714,4.709c4.344,3.064,7.445,6.79,9.301,11.18c1.851,4.385,2.779,9.15,2.779,14.289
		c0,8.322-2.342,15.261-7.033,20.818c-4.689,5.56-11.684,8.339-20.985,8.339c-4.696,0-8.875-0.853-12.539-2.554
		c-3.668-1.699-6.597-3.967-8.79-6.802c-2.197-2.84-3.841-5.937-4.937-9.306C1479.523,3235.599,1478.938,3232.098,1478.864,3228.467
		z M1507.112,3186.721c-11.952,0-21.745,3.912-29.382,11.74c-7.643,7.825-11.461,17.79-11.461,29.893
		c0,5.37,0.848,10.458,2.554,15.261c1.701,4.797,4.16,9.131,7.375,12.987c3.213,3.861,7.468,6.94,12.762,9.25
		c5.296,2.306,11.269,3.458,17.927,3.458c6.653,0,12.626-1.121,17.921-3.345c5.294-2.235,9.549-5.276,12.764-9.132
		c3.213-3.86,5.674-8.227,7.37-13.104c1.706-4.883,2.554-10.041,2.554-15.486c0-11.498-3.514-21.271-10.547-29.326
		C1529.91,3190.862,1519.968,3186.795,1507.112,3186.721z M1347.051,3188.197h-15.092v0.567l30.633,46.286v32.559h12.707v-32.559
		l31.537-46.286v-0.567h-15.318l-22.573,35.051L1347.051,3188.197z M1067.606,3100.829h68.865v40.575h-121.435v-215.803h52.57
		V3100.829z"/>
	<g>
		<defs>
			<path id="SVGID_1_" d="M1817.733,1940.475c-3.628-31.369,9.945-63.628,37.945-82.496c25.357-17.096,56.455-19.098,82.693-8.091
				l-70.955,57.091l79.544-44.342c0.365,28.449-13.157,56.519-38.514,73.617C1880.445,1955.121,1845.455,1955.604,1817.733,1940.475
				 M2791.19,2072.184c7.437-30.693-2.079-64.367-27.559-86.524c-23.076-20.076-53.689-25.873-81.076-18.16l63.427,65.36
				l-73.514-53.759c-3.846,28.192,6.139,57.709,29.21,77.777C2727.156,2079.041,2761.823,2083.796,2791.19,2072.184z
				 M2771.597,1911.655c-8.911-30.296-33.992-54.702-67.137-61.149c-30.013-5.843-59.428,4.436-79.286,24.813l87.608,24.889
				l-90.545-9.797c10.772,26.335,34.17,46.904,64.185,52.747C2719.561,1949.611,2751.971,1936.399,2771.597,1911.655z
				 M2719.757,2212.611c21.789-22.861,30.375-56.787,19.398-88.714c-9.942-28.917-33.565-49.246-61.139-56.256l22.255,88.309
				l-36.785-83.311c-17.428,22.496-23.539,53.053-13.597,81.962C2660.873,2186.526,2688.521,2207.986,2719.757,2212.611z
				 M2538.668,2139.265c31.57-0.764,61.632-18.676,76.443-49.013c13.413-27.489,11.094-58.562-3.449-83.02l-46.712,78.185
				l32.896-84.922c-28.229,3.578-54.148,20.863-67.563,48.347C2515.472,2079.184,2519.848,2113.903,2538.668,2139.265z
				 M2522.336,2045.264c5.575-22.997-1.565-48.226-20.653-64.828c-17.279-15.03-40.225-19.378-60.737-13.602l47.519,48.972
				l-55.081-40.274c-2.886,21.121,4.602,43.236,21.891,58.271C2474.353,2050.398,2500.333,2053.968,2522.336,2045.264z
				 M2423.24,2036.116c-0.496-20.319-12.023-39.674-31.551-49.205c-17.682-8.63-37.684-7.135-53.423,2.225l50.308,30.061
				l-54.651-21.167c2.311,18.16,13.433,34.85,31.116,43.479C2384.568,2051.041,2406.916,2048.229,2423.24,2036.116z
				 M2362.04,2102.227c-0.703-29.05-17.187-56.721-45.106-70.34c-25.293-12.347-53.886-10.21-76.39,3.172l71.944,42.991
				l-78.152-30.276c3.298,25.97,19.205,49.833,44.493,62.17C2306.753,2123.574,2338.703,2119.55,2362.04,2102.227z
				 M2265.723,2116.756c-9.605-15.742-27.446-25.717-47.111-24.344c-17.815,1.236-32.85,11.483-40.969,25.98l53.169,0.797
				l-52.551,8.157c10.055,13.231,26.364,21.289,44.184,20.053C2242.105,2146.031,2258.391,2133.68,2265.723,2116.756z
				 M2666.574,1771.014c-22.86-21.782-56.785-30.38-88.718-19.392c-28.912,9.947-49.248,33.56-56.256,61.144l88.309-22.265
				l-83.305,36.798c22.491,17.42,53.043,23.534,81.962,13.583C2640.486,1829.905,2661.951,1802.257,2666.574,1771.014z
				 M2511.007,1758.406c2.112,18.326-5.82,37.16-22.162,48.185c-14.807,9.983-32.967,11.145-48.283,4.727l41.428-33.345
				l-46.451,25.891c-0.212-16.605,7.689-33.003,22.494-42.983C2474.376,1749.855,2494.819,1749.579,2511.007,1758.406z
				 M2597.498,1712.447c-8.906-30.296-33.992-54.701-67.127-61.157c-30.028-5.838-59.433,4.451-79.294,24.826l87.606,24.879
				l-90.541-9.797c10.762,26.341,34.166,46.911,64.19,52.757C2545.463,1750.409,2577.872,1737.196,2597.498,1712.447z
				 M2523.933,1517.945c11.62,29.367,6.86,64.035-15.297,89.504c-20.066,23.075-49.585,33.06-77.777,29.218l53.755-73.514
				l-65.352,63.427c-7.721-27.387-1.92-58.005,18.152-81.081C2459.566,1520.024,2493.24,1510.509,2523.933,1517.945z
				 M2398.404,1417.762c24.747,19.618,37.96,52.021,31.509,85.167c-5.843,30.018-26.412,53.426-52.749,64.188l9.793-90.544
				l-24.879,87.612c-20.382-19.866-30.671-49.276-24.823-79.291C2343.711,1451.75,2368.108,1426.669,2398.404,1417.762z
				 M2197.663,1438.958c29.372-11.615,64.035-6.855,89.514,15.302c23.079,20.073,33.06,49.585,29.213,77.777l-73.517-53.76
				l63.43,65.367c-27.382,7.716-58.005,1.911-81.081-18.157C2199.753,1503.33,2190.237,1469.652,2197.663,1438.958z
				 M2250.469,1614.243c9.605,15.742,27.441,25.717,47.111,24.345c17.808-1.237,32.85-11.484,40.969-25.975l-53.173-0.797
				l52.555-8.162c-10.059-13.223-26.365-21.296-44.178-20.055C2274.077,1584.968,2257.801,1597.318,2250.469,1614.243z
				 M2292.505,1652.578c-4.339,17.926,1.223,37.595,16.094,50.532c13.474,11.722,31.354,15.106,47.35,10.598l-37.043-38.167
				l42.927,31.397c2.244-16.464-3.584-33.703-17.054-45.425C2329.898,1648.581,2309.654,1645.803,2292.505,1652.578z
				 M2278.402,1710.831c28.988,12.552,50.132,40.44,52.476,74.119c2.127,30.511-11.691,58.44-34.344,75.658l-13.967-90
				l-1.364,91.069c-24.823-13.911-42.37-39.663-44.502-70.168C2234.359,1757.831,2251.447,1727.277,2278.402,1710.831z
				 M2227.49,1779.682c-27.727-15.124-62.712-14.641-90.718,4.231c-25.352,17.093-38.874,45.162-38.509,73.612l79.544-44.347
				l-70.955,57.101c26.243,11.007,57.335,9,82.692-8.091C2217.543,1843.315,2231.113,1811.061,2227.49,1779.682z M2168.788,1746.609
				c-8.906-30.301-33.987-54.702-67.132-61.154c-30.018-5.843-59.428,4.441-79.286,24.813l87.608,24.894l-90.55-9.802
				c10.767,26.345,34.175,46.909,64.195,52.752C2116.756,1784.57,2149.171,1771.356,2168.788,1746.609z M2136.098,1647.907
				c-0.763-31.57-18.681-61.641-49.018-76.446c-27.484-13.405-58.554-11.086-83.012,3.453l78.18,46.709l-84.922-32.896
				c3.575,28.228,20.865,54.157,48.349,67.567C2076.012,1671.104,2110.736,1666.733,2136.098,1647.907z M1562.647,1715.137
				c-11.62-29.367-6.859-64.035,15.297-89.509c20.073-23.074,49.59-33.064,77.782-29.218l-53.76,73.519l65.357-63.435
				c7.716,27.39,1.916,58.008-18.147,81.084C1627.019,1713.052,1593.336,1722.568,1562.647,1715.137z M1685.479,1718.632
				c-3.616-31.364,9.96-63.628,37.947-82.499c25.362-17.092,56.458-19.097,82.691-8.083l-70.954,57.091l79.552-44.352
				c0.36,28.45-13.162,56.529-38.519,73.616C1748.201,1733.279,1713.211,1733.756,1685.479,1718.632z M1836.624,1836.67
				c-24.744-19.626-37.952-52.031-31.504-85.18c5.841-30.01,26.415-53.417,52.752-64.18l-9.797,90.541l24.883-87.602
				c20.377,19.861,30.671,49.271,24.82,79.286C1891.33,1802.679,1866.928,1827.76,1836.624,1836.67z M1381.811,1640.47
				c22.854,21.789,56.782,30.385,88.712,19.394c28.909-9.942,49.243-33.557,56.253-61.134l-88.311,22.255l83.311-36.793
				c-22.489-17.425-53.048-23.531-81.965-13.589C1407.89,1581.586,1386.426,1609.229,1381.811,1640.47z M1468.575,1480.405
				c8.907,30.296,33.987,54.707,67.132,61.154c30.018,5.843,59.433-4.441,79.289-24.818l-87.607-24.889l90.545,9.803
				c-10.767-26.347-34.17-46.911-64.185-52.754C1520.601,1442.444,1488.201,1455.662,1468.575,1480.405z M2188.073,1326.421
				c-5.197-17.697-19.853-31.945-39.198-35.712c-17.527-3.415-34.709,2.592-46.306,14.493l51.164,14.529l-52.878-5.716
				c6.292,15.382,19.95,27.385,37.488,30.802C2157.688,1348.583,2176.617,1340.871,2188.073,1326.421z M2134.214,1389.138
				c-0.445-18.442-10.907-35.992-28.623-44.636c-16.046-7.835-34.193-6.481-48.469,2.015l45.645,27.268l-49.585-19.21
				c2.089,16.488,12.182,31.631,28.24,39.461C2099.13,1402.684,2119.409,1400.135,2134.214,1389.138z M2076.308,1543.568
				c21.792-22.865,30.385-56.79,19.397-88.712c-9.942-28.917-33.565-49.248-61.134-56.258l22.246,88.311l-36.78-83.311
				c-17.43,22.489-23.539,53.048-13.592,81.962C2017.427,1517.49,2045.067,1538.943,2076.308,1543.568z M2326.267,1184.829
				c-4.623,31.241-26.077,58.886-58.013,69.863c-28.914,9.947-59.463,3.838-81.957-13.587l83.311-36.79l-88.304,22.256
				c7.003-27.578,27.329-51.193,56.246-61.141C2269.482,1154.444,2303.402,1163.037,2326.267,1184.829z M2168.328,1130.773
				c14.45,11.456,22.172,30.375,18.4,49.73c-3.407,17.529-15.425,31.2-30.802,37.479l5.721-52.866l-14.534,51.155
				c-11.896-11.597-17.907-28.772-14.496-46.301C2136.393,1150.616,2150.642,1135.97,2168.328,1130.773z M2094.731,1173.846
				c14.44,11.466,22.157,30.39,18.395,49.741c-3.417,17.527-15.43,31.195-30.812,37.483l5.721-52.874l-14.529,51.16
				c-11.901-11.597-17.907-28.774-14.498-46.296C2062.776,1193.704,2077.029,1179.057,2094.731,1173.846z M1807.73,1289.978
				c-7.436,30.694,2.089,64.377,27.564,86.534c23.071,20.063,53.689,25.858,81.071,18.142l-63.422-65.357l73.512,53.765
				c3.843-28.192-6.142-57.714-29.208-77.787C1871.768,1283.124,1837.092,1278.358,1807.73,1289.978z M1611.834,1390.277
				c-7.436,30.694,2.089,64.372,27.564,86.529c23.071,20.068,53.689,25.865,81.081,18.152l-63.431-65.357l73.514,53.76
				c3.851-28.202-6.137-57.714-29.208-77.777C1675.874,1383.427,1641.203,1378.662,1611.834,1390.277z M796.38,1265.216
				l-8.785-54.417c62.962-175.425,194.119-319.537,415.035-378.732c455.641-122.086,729.051,233.969,795.938,334.742
				c-26.846,10.565-47.888,34.188-53.807,64.612c-5.846,30.013,4.433,59.428,24.82,79.284l24.883-87.602l-9.797,90.541
				c26.341-10.762,46.911-34.167,52.749-64.185c5.19-26.646-2.339-52.818-18.349-72.253
				c38.177-117.435,240.331-418.876,604.861-445.499c381.76-27.878,884.882,461.233,491.445,1150.505
				c-121.993,213.727-268.144,386.562-411.74,523.365l-568.363-262.152c32.4-58.763,103.486-149.363,247.307-194.803
				c223.36-70.57,280.251,94.803,280.251,94.803c-35.005-229.319-256.097-215.957-256.097-215.957
				c78.015-174.15-88.015-283.174-88.015-283.174c135.37,138.364,5.427,371.15-109.843,373.188
				c-115.279,2.048-203.261-80.545-237.562-335.187c-34.307-254.64,201.048-345.006,201.048-345.006
				c-225.375,55.583-275.336,320.41-275.336,320.41c-198.43-66.532-354.063,27.765-354.063,27.765
				c326.297-69.372,441.853,181.074,457.778,495.912l-45.083-20.793c5.575-15.63,8.344-32.17,8.134-48.793l-51.577,28.749
				l-14.679-6.77l52.56-42.294c-39.587-16.615-86.13-14.628-125.263,8.762l-581.041-267.993L796.38,1265.216z M1770.326,1411.586
				c-7.431,30.694,2.089,64.372,27.559,86.529c23.076,20.073,53.699,25.868,81.084,18.152l-63.43-65.357l73.512,53.755
				c3.848-28.187-6.137-57.704-29.216-77.772C1834.361,1404.737,1799.693,1399.971,1770.326,1411.586z"/>
		</defs>
		<clipPath id="SVGID_00000048470031448185832170000008972267518604833434_">
			<use xlink:href="#SVGID_1_"  style="overflow:visible;"/>
		</clipPath>
		
			<linearGradient id="SVGID_00000173136019652663182120000015255276362873437371_" gradientUnits="userSpaceOnUse" x1="3371.9495" y1="3908.5386" x2="-966.7241" y2="-4436.749">
			<stop  offset="0" style="stop-color:#007C21"/>
			<stop  offset="1" style="stop-color:#FFFF00"/>
		</linearGradient>
		
			<rect x="787.595" y="703.83" style="clip-path:url(#SVGID_00000048470031448185832170000008972267518604833434_);fill:url(#SVGID_00000173136019652663182120000015255276362873437371_);" width="2721.215" height="1701.748"/>
	</g>
	<path style="opacity:0.3;fill-rule:evenodd;clip-rule:evenodd;fill:#013B01;" d="M1977.999,1137.338
		c-273.4-39.502-539.383-107.324-690.388-322.887c11.939-1.77,23.765-3.299,35.422-4.428
		c143.893,162.985,356.253,218.263,582.228,239.666C1935.869,1082.327,1960.148,1112.894,1977.999,1137.338 M3232.731,1596.953
		c-272.664-261.775-576.393-362.83-861.244-407.997c-16.086-2.549-32.349-4.975-48.765-7.319
		c-22.734-19.415-54.856-26.64-85.172-16.207c-3.147,1.083-6.188,2.329-9.131,3.721c-13.663-1.711-27.392-3.387-41.175-5.064
		c-1.744-13.198-8.621-25.152-18.916-33.314c-13.798,4.058-25.506,13.859-31.775,27.167c-34.775-4.222-69.765-8.532-104.747-13.17
		c11.063-24.557,26.871-53.339,47.379-84.094c119.833,4.709,239.568,5.304,351.347,12.36
		c265.309,16.732,551.045,79.253,826.025,272.927C3261.845,1424.036,3254.883,1507.993,3232.731,1596.953z"/>
	<g>
		<defs>
			<path id="SVGID_00000134952386823428176910000003766533647631223483_" d="M1905.26,1049.689
				c-225.975-21.403-438.335-76.681-582.228-239.666C1597.052,783.555,1793.34,930.32,1905.26,1049.689 M3256.556,1345.963
				c-274.98-193.674-560.716-256.195-826.025-272.927c-111.778-7.056-231.514-7.651-351.347-12.36
				c90.311-135.412,272.102-309.056,544.743-328.969C2896.172,711.823,3230.032,954.909,3256.556,1345.963z"/>
		</defs>
		<clipPath id="SVGID_00000009560602273283283100000002572006013256827779_">
			<use xlink:href="#SVGID_00000134952386823428176910000003766533647631223483_"  style="overflow:visible;"/>
		</clipPath>
		
			<linearGradient id="SVGID_00000099656039575436578350000009281380418254859164_" gradientUnits="userSpaceOnUse" x1="4317.4067" y1="2791.7932" x2="738.2386" y2="-320.1009">
			<stop  offset="0" style="stop-color:#007C21"/>
			<stop  offset="1" style="stop-color:#FFFF00"/>
		</linearGradient>
		
			<rect x="1323.032" y="711.823" style="opacity:0.3;clip-path:url(#SVGID_00000009560602273283283100000002572006013256827779_);fill:url(#SVGID_00000099656039575436578350000009281380418254859164_);" width="1933.523" height="634.14"/>
	</g>
	<path style="opacity:0.3;fill-rule:evenodd;clip-rule:evenodd;fill:#FFFFFF;" d="M1905.26,1049.689
		c-225.975-21.403-438.335-76.681-582.228-239.666C1597.052,783.555,1793.34,930.32,1905.26,1049.689 M2143.701,977.122
		c113.668,15.003,256.378,29.438,444.666,66.279c319.489,62.517,542.057,195.768,667.307,290.465
		c0.337,4.006,0.605,8.054,0.881,12.097c-274.98-193.674-560.716-256.195-826.025-272.927
		c-111.778-7.056-231.514-7.651-351.347-12.36C2097.102,1033.824,2118.602,1005.482,2143.701,977.122z"/>
	<path style="opacity:0.3;fill-rule:evenodd;clip-rule:evenodd;fill:#013B01;" d="M2250.469,1614.243
		c9.605,15.742,27.441,25.717,47.111,24.345c17.808-1.237,32.85-11.484,40.969-25.975l-53.173-0.797l52.555-8.162
		c-10.059-13.223-26.365-21.296-44.178-20.055C2274.077,1584.968,2257.801,1597.318,2250.469,1614.243 M2292.505,1652.578
		c-4.339,17.926,1.223,37.595,16.094,50.532c13.474,11.722,31.354,15.106,47.35,10.598l-37.043-38.167l42.927,31.397
		c2.244-16.464-3.584-33.703-17.054-45.425C2329.898,1648.581,2309.654,1645.803,2292.505,1652.578z M1685.479,1718.632
		c-3.616-31.364,9.96-63.628,37.947-82.499c25.362-17.092,56.458-19.097,82.691-8.083l-70.954,57.091l79.552-44.352
		c0.36,28.45-13.162,56.529-38.519,73.616C1748.201,1733.279,1713.211,1733.756,1685.479,1718.632z M1513.011,1602.201
		c-7.478-1.364-14.896-2.807-22.228-4.324l-52.317,23.108L1513.011,1602.201z M1655.599,1617.874
		c-5.026-0.22-10.035-0.469-15.025-0.75l-38.608,52.805L1655.599,1617.874z M1809.345,1617.054
		c-45.002,1.841-89.926,2.539-134.717,1.471c-1.627-0.038-3.215-0.122-4.832-0.169c3.304,24.093-3.41,49.43-20.62,69.221
		c-22.157,25.474-55.84,34.99-86.529,27.559c-11.62-29.367-6.859-64.035,15.297-89.509c4.043-4.653,8.476-8.77,13.198-12.35
		c-22.564-2.301-44.577-5.276-66.007-8.907c-8.218,25.124-27.696,46.241-54.613,55.494c-31.931,10.992-65.858,2.395-88.712-19.394
		c3.58-24.228,17.297-46.296,38.162-60.102c-321.664-93.127-496.367-334.264-577.405-485.653
		c-3.304,5.455-6.527,10.969-9.658,16.526c71.021,172.064,198.861,350.132,424.79,487.783
		c179.989,109.666,364.666,143.954,547.864,150.331c6.387-28.984,26.598-51.539,52.307-62.045l-6.831,63.13
		c1.607,0.02,3.205,0.015,4.817,0.025l17.101-60.217c16.02,15.606,25.798,37.122,26.412,60.188
		c8.987-0.089,17.973-0.226,26.945-0.403C1897.318,1693.449,1858.917,1647.743,1809.345,1617.054z M2045.946,1599.938l-15.972,1.433
		l52.274,20.251L2045.946,1599.938z M2345.08,1577.337c-76.364,3.007-152.945,9.384-229.545,16.271
		c12.838,15.238,20.081,34.476,20.563,54.299c-25.362,18.826-60.086,23.197-90.423,8.387
		c-22.438-10.951-38.078-30.245-45.011-52.318c-8.636,0.751-17.271,1.481-25.901,2.212c8.583,55.504,19.917,102.207,33.678,141.185
		c7.731-0.334,15.461-0.68,23.183-1.05c-5.003-6.382-9.117-13.433-12.197-20.962l90.55,9.802l-87.608-24.894
		c19.858-20.372,49.268-30.656,79.286-24.813c30.344,5.907,53.924,26.866,64.527,53.61c28.999-1.598,57.85-3.097,86.521-4.306
		c6.84-9.582,15.569-17.749,25.699-23.929c11.666,5.051,22.063,12.59,30.473,21.988c21.24-0.552,42.375-0.871,63.388-0.866
		C2381.878,1680.338,2375.829,1625.308,2345.08,1577.337z M3152.883,1811.52c-203.167-165.478-413.765-221.904-627.347-233.542
		c-3.537,10.537-9.15,20.569-16.9,29.471c-20.066,23.075-49.585,33.06-77.777,29.218l44.342-60.643l-3.747-0.104l-52.192,50.66
		c-4.684-16.625-4.39-34.428,1.05-51.02c-21.149,0.132-42.322,0.595-63.504,1.335c30.998,31.64,69.76,85.236,70.726,155.882
		c20.709,0.641,41.283,1.724,61.734,3.238c-18.84-9.62-33.309-25.696-41.124-44.817l90.541,9.797l-87.606-24.879
		c19.861-20.375,49.266-30.664,79.294-24.826c33.135,6.456,58.221,30.861,67.127,61.157c-11.455,14.445-27.268,24.955-45.035,29.926
		c13.03,1.683,25.993,3.588,38.893,5.768c22.129-3.866,44.332,1.081,62.395,12.767c111.207,26.936,217.049,76.545,315.522,164.142
		c25.141,22.369,49.8,47.215,73.949,74.778c24.8-37.764,48.924-76.919,72.15-117.616
		C3128.964,1858.401,3141.385,1834.849,3152.883,1811.52z"/>
	<g>
		<defs>
			<path id="SVGID_00000036209584462686857520000010693809222050309805_" d="M1861.029,2191.507
				c11.714,19.202,33.464,31.355,57.438,29.693c21.722-1.514,40.056-14.015,49.96-31.683l-64.84-0.97l64.081-9.952
				c-12.256-16.132-32.147-25.962-53.868-24.443C1889.821,2155.819,1869.969,2170.882,1861.029,2191.507 M1757.872,2135.817
				c-5.767-49.989,15.856-101.382,60.464-131.458c40.402-27.236,89.955-30.427,131.757-12.884l-113.053,90.98l126.749-70.664
				c0.577,45.331-20.972,90.058-61.379,117.292C1857.806,2159.155,1802.046,2159.923,1757.872,2135.817z M1817.733,1940.475
				c-3.628-31.369,9.945-63.628,37.945-82.496c25.357-17.096,56.455-19.098,82.693-8.091l-70.955,57.091l79.544-44.342
				c0.365,28.449-13.157,56.519-38.514,73.617C1880.445,1955.121,1845.455,1955.604,1817.733,1940.475z M2791.19,2072.184
				c7.437-30.693-2.079-64.367-27.559-86.524c-23.076-20.076-53.689-25.873-81.076-18.16l63.427,65.36l-73.514-53.759
				c-3.846,28.192,6.139,57.709,29.21,77.777C2727.156,2079.041,2761.823,2083.796,2791.19,2072.184z M2771.597,1911.655
				c-8.911-30.296-33.992-54.702-67.137-61.149c-30.013-5.843-59.428,4.436-79.286,24.813l87.608,24.889l-90.545-9.797
				c10.772,26.335,34.17,46.904,64.185,52.747C2719.561,1949.611,2751.971,1936.399,2771.597,1911.655z M2719.757,2212.611
				c21.789-22.861,30.375-56.787,19.398-88.714c-9.942-28.917-33.565-49.246-61.139-56.256l22.255,88.309l-36.785-83.311
				c-17.428,22.496-23.539,53.053-13.597,81.962C2660.873,2186.526,2688.521,2207.986,2719.757,2212.611z M2538.668,2139.265
				c31.57-0.764,61.632-18.676,76.443-49.013c13.413-27.489,11.094-58.562-3.449-83.02l-46.712,78.185l32.896-84.922
				c-28.229,3.578-54.148,20.863-67.563,48.347C2515.472,2079.184,2519.848,2113.903,2538.668,2139.265z M2522.336,2045.264
				c5.575-22.997-1.565-48.226-20.653-64.828c-17.279-15.03-40.225-19.378-60.737-13.602l47.519,48.972l-55.081-40.274
				c-2.886,21.121,4.602,43.236,21.891,58.271C2474.353,2050.398,2500.333,2053.968,2522.336,2045.264z M2423.24,2036.116
				c-0.496-20.319-12.023-39.674-31.551-49.205c-17.682-8.63-37.684-7.135-53.423,2.225l50.308,30.061l-54.651-21.167
				c2.311,18.16,13.433,34.85,31.116,43.479C2384.568,2051.041,2406.916,2048.229,2423.24,2036.116z M2362.04,2102.227
				c-0.703-29.05-17.187-56.721-45.106-70.34c-25.293-12.347-53.886-10.21-76.39,3.172l71.944,42.991l-78.152-30.276
				c3.298,25.97,19.205,49.833,44.493,62.17C2306.753,2123.574,2338.703,2119.55,2362.04,2102.227z M2265.723,2116.756
				c-9.605-15.742-27.446-25.717-47.111-24.344c-17.815,1.236-32.85,11.483-40.969,25.98l53.169,0.797l-52.551,8.157
				c10.055,13.231,26.364,21.289,44.184,20.053C2242.105,2146.031,2258.391,2133.68,2265.723,2116.756z M2511.007,1758.406
				c2.112,18.326-5.82,37.16-22.162,48.185c-14.807,9.983-32.967,11.145-48.283,4.727l41.428-33.345l-46.451,25.891
				c-0.212-16.605,7.689-33.003,22.494-42.983C2474.376,1749.855,2494.819,1749.579,2511.007,1758.406z M2227.49,1779.682
				c-27.727-15.124-62.712-14.641-90.718,4.231c-25.352,17.093-38.874,45.162-38.509,73.612l79.544-44.347l-70.955,57.101
				c26.243,11.007,57.335,9,82.692-8.091C2217.543,1843.315,2231.113,1811.061,2227.49,1779.682z M2427.536,1732.895
				c20.752,0.641,41.382,1.668,61.871,3.19c7.069,3.589,14.749,6.278,22.926,7.871c13.681,2.666,27.241,1.974,39.83-1.499
				c13.026,1.673,25.99,3.57,38.889,5.741c-4.41,0.787-8.823,1.921-13.195,3.425c-28.912,9.947-49.248,33.56-56.256,61.144
				l88.309-22.265l-83.305,36.798c22.491,17.42,53.043,23.534,81.962,13.583c31.92-10.978,53.385-38.626,58.008-69.869
				c-3.898-3.716-8.119-7.041-12.594-9.955c139.492,33.841,270.529,103.433,389.18,238.859
				c-296.655,451.781-692.215,696.315-871.023,790.172c-50.995-198.068-82.126-457.937-60.873-591.4
				c0,0,47.956-179.501,271.311-250.068c223.36-70.57,280.251,94.803,280.251,94.803
				c-35.005-229.319-256.097-215.957-256.097-215.957C2422.027,1793.327,2427.911,1761.7,2427.536,1732.895z M2008.455,1747.419
				c7.744-0.332,15.484-0.674,23.21-1.04c12.501,15.906,30.544,27.564,51.957,31.734c33.134,6.456,65.549-6.757,85.165-31.504
				c-0.749-2.541-1.612-5.033-2.577-7.483c28.97-1.583,57.79-3.088,86.44-4.293c-11.324,15.902-17.41,35.684-15.949,56.674
				c2.132,30.506,19.679,56.258,44.502,70.168l1.364-91.069l13.967,90c22.653-17.218,36.471-45.147,34.344-75.658
				c-1.397-20.088-9.484-38.107-21.938-52.051c21.21-0.547,42.318-0.871,63.304-0.856c-18.362,98.299-93.554,184.21-163.374,185.441
				C2123.536,1918.998,2053.171,1874.107,2008.455,1747.419z M1851.041,1750.466l4.803,0.036l-7.769,27.349L1851.041,1750.466z
				 M832.907,1111.251c71.025,172.059,198.869,350.127,424.793,487.773c179.983,109.661,364.666,143.962,547.859,150.349
				l-0.44,2.117c-6.448,33.149,6.76,65.554,31.504,85.18c30.304-8.911,54.706-33.992,61.154-67.136
				c1.25-6.415,1.765-12.807,1.597-19.074c8.992-0.094,17.979-0.221,26.955-0.398c130.694,255.094,71.076,730.284-10.616,1038.679
				c-387.349-138.19-872.963-475.083-1051.836-806.945C727.738,1729.221,688.719,1367.29,832.907,1111.251z"/>
		</defs>
		<clipPath id="SVGID_00000143579443645097828450000016392093045895203241_">
			<use xlink:href="#SVGID_00000036209584462686857520000010693809222050309805_"  style="overflow:visible;"/>
		</clipPath>
		
			<linearGradient id="SVGID_00000155147765445189280340000000950943256907939487_" gradientUnits="userSpaceOnUse" x1="2992.9524" y1="3674.6729" x2="542.2102" y2="-74.2516">
			<stop  offset="0" style="stop-color:#007C21"/>
			<stop  offset="1" style="stop-color:#FFFF00"/>
		</linearGradient>
		
			<rect x="688.719" y="1111.251" style="clip-path:url(#SVGID_00000143579443645097828450000016392093045895203241_);fill:url(#SVGID_00000155147765445189280340000000950943256907939487_);" width="2354.442" height="1678.839"/>
	</g>
	<path style="opacity:0.3;fill-rule:evenodd;clip-rule:evenodd;fill:#013B01;" d="M1861.029,2191.507
		c11.714,19.202,33.464,31.355,57.438,29.693c21.722-1.514,40.056-14.015,49.96-31.683l-64.84-0.97l64.081-9.952
		c-12.256-16.132-32.147-25.962-53.868-24.443C1889.821,2155.819,1869.969,2170.882,1861.029,2191.507 M2682.842,2116.467
		c2.296-0.755,4.587-1.58,6.883-2.362l10.547,41.844L2682.842,2116.467z M1980.984,2460.508
		c-182.509-73.121-379.659-119.388-567.261-216.243c92.372-58.643,202.914-111.583,328.926-141.325
		c5.258-1.236,10.529-2.365,15.805-3.443c-1.762,11.975-1.982,24.19-0.582,36.321c44.174,24.106,99.934,23.337,144.539-6.734
		c16.212-10.931,29.387-24.678,39.316-40.149c19.772,1.144,39.661,2.85,59.645,4.972
		C2006.331,2212.034,1997.617,2338.647,1980.984,2460.508z M2969.258,1925.065c25.142,22.367,49.815,47.2,73.964,74.764
		c-221.871,337.932-499.043,559.882-699.525,689.606c-68.19-69.676-143.119-121.988-222.456-164.395
		c-16.904-126.927-22.41-248.274-9.975-326.35c0,0,9.812-36.719,41.221-83.469c17.003,2.726,34.068,5.481,51.16,8.185l-25.385,3.94
		c10.055,13.231,26.364,21.289,44.184,20.053c13.357-0.932,25.155-6.926,33.645-15.987c128.917,18.808,259.635,29.603,389.04-3.897
		c0.14,8.995,1.677,18.122,4.76,27.086c10.983,31.926,38.631,53.385,69.867,58.01c21.789-22.861,30.375-56.787,19.398-88.714
		c-3.013-8.76-7.286-16.735-12.539-23.786c16.737-6.985,33.445-14.787,50.111-23.61c4.919-1.011,9.76-2.449,14.463-4.316
		c0.339-1.382,0.638-2.773,0.906-4.165C2851.797,2034.244,2910.959,1987.854,2969.258,1925.065z"/>
	<path style="opacity:0.3;fill-rule:evenodd;clip-rule:evenodd;fill:#FFFFFF;" d="M1980.974,2460.583
		c-287.653-115.269-611.687-163.805-877.366-448.914c-164.512-176.544-279.795-379.021-360.562-572.266
		c-10.256,188.709,36.752,386.406,120.831,542.393c178.873,331.863,664.487,668.755,1051.836,806.945
		C1941.388,2691.806,1964.88,2578.467,1980.974,2460.583 M2343.632,2689.472c-68.168-69.633-143.077-121.899-222.372-164.296
		c11.993,89.992,29.719,182.747,50.873,264.901C2217.216,2766.41,2276.063,2733.188,2343.632,2689.472z"/>
	<path style="opacity:0.3;fill-rule:evenodd;clip-rule:evenodd;fill:#FFFFFF;" d="M1980.974,2460.583
		c-287.653-115.269-611.687-163.805-877.366-448.914c-164.512-176.544-279.795-379.021-360.562-572.266
		c-7.891,145.078,18.091,295.464,68.721,428.13c-0.929-14.432-1.116-27.357-0.309-37.952c6.147-80.616,60.089-54.519,157.321,77.36
		c97.23,131.884,297.207,393.421,719.548,502.95c100.483,26.064,197.16,57.893,286.291,94.463
		C1976.834,2489.839,1978.969,2475.257,1980.974,2460.583 M2343.632,2689.472c-68.168-69.633-143.077-121.899-222.372-164.296
		c2.266,17.017,4.732,34.127,7.397,51.258c73.575,39.324,138.524,82.233,191.743,127.901
		C2328.01,2699.531,2335.779,2694.551,2343.632,2689.472z"/>
	<path style="opacity:0.3;fill-rule:evenodd;clip-rule:evenodd;fill:#013B01;" d="M1994.9,2335.981
		c-307.327-66.66-639.641-89.43-933.405-449.621c-152.334-186.779-246.95-352.476-312.598-511.651
		c-2.726,21.393-4.671,42.983-5.851,64.694c80.767,193.245,196.049,395.722,360.562,572.266
		c265.679,285.109,589.714,333.645,877.366,448.914C1986.593,2419.417,1991.307,2377.718,1994.9,2335.981 M2500.563,2578.926
		c-119.907-118.137-253.605-176.967-394.502-215.921c2.45,50.78,7.702,105.922,15.2,162.17
		c79.294,42.397,154.203,94.663,222.372,164.296C2392.092,2658.123,2445.004,2621.389,2500.563,2578.926z"/>
	<path style="opacity:0.3;fill-rule:evenodd;clip-rule:evenodd;fill:#013B01;" d="M2523.933,1517.945
		c11.62,29.367,6.86,64.035-15.297,89.504c-20.066,23.075-49.585,33.06-77.777,29.218l53.755-73.514l-65.352,63.427
		c-7.721-27.387-1.92-58.005,18.152-81.081C2459.566,1520.024,2493.24,1510.509,2523.933,1517.945 M2398.404,1417.762
		c24.747,19.618,37.96,52.021,31.509,85.167c-5.843,30.018-26.412,53.426-52.749,64.188l9.793-90.544l-24.879,87.612
		c-20.382-19.866-30.671-49.276-24.823-79.291C2343.711,1451.75,2368.108,1426.669,2398.404,1417.762z M2250.469,1614.243
		c9.605,15.742,27.441,25.717,47.111,24.345c17.808-1.237,32.85-11.484,40.969-25.975l-53.173-0.797l52.555-8.162
		c-10.059-13.223-26.365-21.296-44.178-20.055C2274.077,1584.968,2257.801,1597.318,2250.469,1614.243z M2292.505,1652.578
		c-4.339,17.926,1.223,37.595,16.094,50.532c13.474,11.722,31.354,15.106,47.35,10.598l-37.043-38.167l42.927,31.397
		c2.244-16.464-3.584-33.703-17.054-45.425C2329.898,1648.581,2309.654,1645.803,2292.505,1652.578z M2008.44,1747.378
		c7.731-0.334,15.466-0.681,23.188-1.049c-5.005-6.377-9.122-13.433-12.202-20.967l90.55,9.802l-87.608-24.894
		c19.858-20.372,49.268-30.656,79.286-24.813c30.344,5.907,53.924,26.866,64.527,53.61c28.999-1.598,57.85-3.097,86.526-4.316
		c6.835-9.572,15.569-17.744,25.694-23.919c11.651,5.046,22.04,12.58,30.449,21.965c21.243-0.549,42.384-0.833,63.412-0.825
		c11.929-63.955-0.202-133.149-53.549-187.676c0,0,107.225,70.445,108.818,188.516c20.676,0.641,41.235,1.648,61.65,3.157
		c-18.793-9.615-33.238-25.676-41.04-44.769l90.541,9.797l-87.606-24.879c19.861-20.375,49.266-30.664,79.294-24.826
		c33.135,6.456,58.221,30.861,67.127,61.157c-11.455,14.445-27.264,24.951-45.026,29.921c13.027,1.683,25.99,3.603,38.889,5.774
		c22.073-3.853,44.215,1.063,62.25,12.678c111.263,26.932,217.147,76.592,315.663,164.231c25.141,22.369,49.8,47.215,73.949,74.778
		c24.8-37.764,48.924-76.919,72.15-117.616c112.869-197.74,151.851-378.957,141.178-536.268
		c-63.598-44.792-127.77-82.57-192.137-114.393c-217.119-40.491-366.729-35.613-490.304-0.314
		c-134.423,38.397-238.054,112.782-364.292,203.916c26.412-6.198,55.326-0.056,77.36,19.107
		c23.079,20.073,33.06,49.585,29.213,77.777l-73.517-53.76l63.43,65.367c-27.382,7.716-58.005,1.911-81.081-18.157
		c-23.861-20.76-33.724-51.636-28.759-80.696c-32.531,23.469-66.645,47.983-103.223,73.223c-4.081,9.395-9.792,18.071-16.932,25.554
		c-5.182-0.769-10.256-2-15.18-3.66l-2.939,1.979c-15.175,10.19-30.375,19.701-45.56,28.565c22.898-10.4,50.078-10.879,74.451,1.008
		c30.337,14.805,48.255,44.876,49.018,76.446c-25.362,18.826-60.086,23.197-90.423,8.387c-27.484-13.41-44.773-39.339-48.349-67.567
		l84.922,32.896l-77.782-46.469c-10.598,6.02-21.192,11.74-31.762,17.162C1981.51,1653.947,1993.554,1705.194,2008.44,1747.378z
		 M1773.156,1663.963c-5.291,1.162-10.537,2.255-15.772,3.299l-22.222,17.88L1773.156,1663.963z M1846.308,1644.337
		c-10.874,3.453-21.689,6.653-32.418,9.592c-3.284,23.735-16.258,46.033-37.694,60.478c-27.995,18.873-62.985,19.35-90.717,4.227
		c-1.593-13.821,0.156-27.821,5-40.772c-12.347,1.461-24.481,2.623-36.392,3.527c-1.527,2.114-3.167,4.185-4.911,6.19
		c-22.157,25.474-55.84,34.99-86.529,27.559c-4.015-10.144-6.073-20.919-6.137-31.734c-119.056-4.086-197.699-30.595-197.699-30.595
		c147.686,67.704,297.712,91.365,446.753,96.555c6.382-28.983,26.593-51.547,52.307-62.053l-6.827,63.089l4.817,0.052l17.096-60.202
		c16.02,15.606,25.798,37.122,26.412,60.188c8.987-0.089,17.973-0.221,26.945-0.398
		C1904.964,1708.371,1878.548,1672.566,1846.308,1644.337z"/>
	<rect style="fill:none;" width="4000" height="4000"/>
</g>
</svg>
